<svg width="170" height="170" viewBox="0 0 170 170" fill="none" xmlns="http://www.w3.org/2000/svg">
<g filter="url(#filter0_d)">
<path fill-rule="evenodd" clip-rule="evenodd" d="M85 135C118.137 135 145 108.137 145 75C145 41.8629 118.137 15 85 15C51.8629 15 25 41.8629 25 75C25 108.137 51.8629 135 85 135Z" fill="white"/>
</g>
<path d="M69.0762 81.3232L70.086 78.9577C71.1927 79.7739 72.6313 80.2027 74.07 80.2027C75.1213 80.2027 75.7991 79.7877 75.7991 79.1652C75.7715 77.436 69.4358 78.7779 69.3805 74.4204C69.3528 72.2071 71.331 70.4917 74.1115 70.4917C75.7715 70.4917 77.4315 70.9067 78.6073 71.8336L77.6666 74.2405C76.5876 73.5489 75.2458 73.0647 73.9732 73.0647C73.1017 73.0647 72.5345 73.4797 72.5345 74.0054C72.5622 75.7207 78.9531 74.78 79.0223 78.9439C79.0223 81.2125 77.0995 82.7895 74.3605 82.7895C72.3408 82.8172 70.4872 82.333 69.0762 81.3232ZM109.262 78.1139C108.736 79.0407 107.768 79.6079 106.717 79.6079C105.098 79.6079 103.784 78.2937 103.784 76.6752C103.784 75.0567 105.098 73.7426 106.717 73.7426C107.768 73.7426 108.75 74.3097 109.262 75.2365L112.07 73.6734C111.019 71.7921 109.013 70.5194 106.717 70.5194C103.327 70.5194 100.575 73.2722 100.575 76.6752C100.575 80.0782 103.327 82.831 106.717 82.831C109.013 82.831 111.019 81.5584 112.07 79.677L109.262 78.1139ZM80.8483 82.5682H84.3619V65.3872H80.8483V82.5682ZM113.841 65.3872V82.5682H117.354V77.4222L121.518 82.5682H126L120.716 76.4539L125.613 70.7407H121.324L117.354 75.4855V65.3734H113.841V65.3872ZM95.1657 70.7546V72.1517C94.5847 71.1834 93.1737 70.5194 91.6798 70.5194C88.6088 70.5194 86.1741 73.2446 86.1741 76.6614C86.1741 80.0782 88.5949 82.831 91.6798 82.831C93.1737 82.831 94.5847 82.1532 95.1657 81.1987V82.5959H98.6794V70.7684H95.1657V70.7546ZM95.1657 78.1277C94.6677 78.9715 93.6026 79.594 92.4268 79.594C90.8083 79.594 89.4941 78.2799 89.4941 76.6614C89.4941 75.0429 90.8083 73.7287 92.4268 73.7287C93.6026 73.7287 94.6677 74.3789 95.1657 75.2504V78.1277Z" fill="black"/>
<path d="M50.5391 65.0138C49.4048 65.0138 48.478 65.9406 48.478 67.075C48.478 68.2093 49.4048 69.1361 50.5391 69.1361H52.6003V67.075C52.6003 65.9406 51.6873 65.0138 50.5391 65.0138ZM50.5391 70.5056H45.0612C43.9268 70.5056 43 71.4324 43 72.5668C43 73.7011 43.9268 74.6279 45.0612 74.6279H50.553C51.6873 74.6279 52.6141 73.7011 52.6141 72.5668C52.6003 71.4324 51.6873 70.5056 50.5391 70.5056Z" fill="#36C5F0"/>
<path d="M63.5843 72.5668C63.5843 71.4325 62.6575 70.5056 61.5232 70.5056C60.3889 70.5056 59.462 71.4325 59.462 72.5668V74.628H61.5232C62.6575 74.6418 63.5843 73.715 63.5843 72.5668ZM58.0925 72.5668V67.0612C58.0925 65.9268 57.1657 65 56.0314 65C54.897 65 53.9702 65.9268 53.9702 67.0612V72.5668C53.9702 73.7011 54.897 74.628 56.0314 74.628C57.1795 74.6418 58.0925 73.715 58.0925 72.5668Z" fill="#2EB67D"/>
<path d="M56.0314 85.6392C57.1657 85.6392 58.0925 84.7124 58.0925 83.578C58.0925 82.4437 57.1657 81.5169 56.0314 81.5169H53.9702V83.578C53.9702 84.7124 54.897 85.6392 56.0314 85.6392ZM56.0314 80.1335H61.5232C62.6575 80.1335 63.5843 79.2067 63.5843 78.0724C63.5843 76.9381 62.6575 76.0112 61.5232 76.0112H56.0314C54.897 76.0112 53.9702 76.9381 53.9702 78.0724C53.9702 79.2067 54.897 80.1335 56.0314 80.1335Z" fill="#ECB22E"/>
<path d="M43 78.0724C43 79.2067 43.9268 80.1335 45.0612 80.1335C46.1955 80.1335 47.1223 79.2067 47.1223 78.0724V76.0112H45.0612C43.913 76.0112 43 76.9381 43 78.0724ZM48.4918 78.0724V83.578C48.4918 84.7124 49.4186 85.6392 50.553 85.6392C51.6873 85.6392 52.6141 84.7124 52.6141 83.578V78.0724C52.6141 76.9381 51.6873 76.0112 50.553 76.0112C49.4048 76.0112 48.4918 76.9381 48.4918 78.0724Z" fill="#E01E5A"/>
<defs>
<filter id="filter0_d" x="0" y="0" width="170" height="170" filterUnits="userSpaceOnUse" color-interpolation-filters="sRGB">
<feFlood flood-opacity="0" result="BackgroundImageFix"/>
<feColorMatrix in="SourceAlpha" type="matrix" values="0 0 0 0 0 0 0 0 0 0 0 0 0 0 0 0 0 0 127 0"/>
<feOffset dy="10"/>
<feGaussianBlur stdDeviation="12.5"/>
<feColorMatrix type="matrix" values="0 0 0 0 0 0 0 0 0 0 0 0 0 0 0 0 0 0 0.05 0"/>
<feBlend mode="normal" in2="BackgroundImageFix" result="effect1_dropShadow"/>
<feBlend mode="normal" in="SourceGraphic" in2="effect1_dropShadow" result="shape"/>
</filter>
</defs>
</svg>
